<svg version="1.1" id="Layer_1" xmlns="http://www.w3.org/2000/svg" xmlns:xlink="http://www.w3.org/1999/xlink" x="0px" y="0px"
	 width="100%" viewBox="0 0 992 992" enable-background="new 0 0 992 992" xml:space="preserve">
<path fill="#000000" opacity="1.000000" stroke="none" 
	d="
M901.873779,676.893677 
	C911.644531,659.877502 916.515686,641.811279 916.290161,622.651733 
	C916.028442,600.419556 909.879883,579.516235 898.780334,560.331482 
	C870.510010,511.468292 829.105103,479.691711 774.178406,465.878540 
	C771.925049,465.311859 769.623840,464.932831 767.376160,464.346497 
	C754.859863,461.081390 747.441956,449.480804 750.121216,437.419983 
	C752.944763,424.709656 764.003784,417.188385 776.974121,419.560059 
	C822.775085,427.934967 861.703857,449.647705 895.259094,481.383392 
	C922.731750,507.366364 943.267822,537.923828 954.659607,574.247742 
	C960.742004,593.642151 963.549805,613.531067 962.111267,633.807434 
	C959.780396,666.661743 947.762268,695.808655 927.313416,721.560608 
	C907.502197,746.509766 882.621887,765.272156 855.026489,780.654053 
	C814.822754,803.063965 771.511353,817.036255 726.868164,827.253601 
	C700.128845,833.373291 673.118652,837.926697 645.907227,841.486572 
	C620.169189,844.853699 594.336792,847.049316 568.481323,849.054810 
	C555.707520,850.045654 542.894653,850.742798 530.087036,851.047180 
	C499.605621,851.771667 469.121582,852.783691 438.624084,851.940125 
	C407.169342,851.070190 375.744141,849.553833 344.447388,846.215881 
	C292.386902,840.663269 241.069489,831.491150 191.807068,813.076782 
	C152.696487,798.457092 116.711143,778.690430 87.351326,748.291870 
	C62.093517,722.140381 45.932549,691.159180 39.944378,655.374451 
	C34.213959,621.130066 37.851944,587.367981 48.814789,554.478516 
	C61.912537,515.184204 81.736580,479.856079 111.742836,450.834564 
	C123.003441,439.943542 135.588028,431.080994 151.525635,428.145264 
	C163.809830,425.882477 176.813232,436.053345 177.337280,448.565948 
	C177.896942,461.928925 172.543549,469.507874 159.835083,473.464020 
	C153.091415,475.563324 147.938934,480.130920 143.050980,484.902679 
	C122.922333,504.552887 108.805870,528.164795 98.148933,553.976196 
	C89.441658,575.065430 83.990005,597.011414 83.450684,619.835876 
	C82.425735,663.211609 99.248070,698.765747 131.988785,726.987610 
	C154.786575,746.638794 181.177963,759.931702 209.140564,770.333130 
	C245.006485,783.674316 282.215515,791.512085 320.030334,796.727783 
	C345.402588,800.227295 370.885406,802.369690 396.456940,803.970764 
	C433.922791,806.316528 471.403900,806.044922 508.869751,805.459412 
	C534.650330,805.056519 560.456848,803.594299 586.159424,801.482056 
	C639.720032,797.080444 692.853027,789.696411 744.738037,775.101196 
	C784.388611,763.947510 822.516174,749.295044 856.373413,725.179321 
	C874.620422,712.182373 890.273743,696.684814 901.873779,676.893677 
z"/>
<path fill="#000000" opacity="1.000000" stroke="none" 
	d="
M330.016174,43.600197 
	C338.849182,47.323246 344.287842,54.531860 350.291412,60.896843 
	C376.654572,88.847084 397.958923,120.082626 409.643036,157.035736 
	C427.652832,213.994919 415.686035,264.621490 376.581299,309.336792 
	C361.975861,326.037720 344.166077,338.937286 326.941742,352.609772 
	C309.204224,366.689575 293.800629,383.057739 282.465851,402.856689 
	C264.201202,434.760315 263.844055,467.459564 279.002014,500.517578 
	C292.091522,529.064514 311.776520,552.563354 335.738373,572.576843 
	C343.547333,579.099060 346.020294,587.406189 343.837891,596.752014 
	C341.593323,606.363953 334.889587,612.013000 325.011414,613.758850 
	C318.680328,614.877747 312.777039,613.383423 308.073578,609.508789 
	C270.506165,578.561035 241.059616,541.654175 227.750854,494.033142 
	C212.675812,440.092072 227.617188,392.908112 262.612823,350.929138 
	C277.097412,333.554199 293.984619,318.763519 312.202545,305.398926 
	C327.330353,294.301239 340.859497,281.508301 351.760437,266.117218 
	C373.334473,235.656708 377.131561,202.749481 364.670258,167.913132 
	C352.743469,134.571121 332.154999,106.973930 306.795319,82.679901 
	C294.939880,71.322655 296.190979,53.662880 309.535156,45.446339 
	C315.836090,41.566586 322.609283,40.783367 330.016174,43.600197 
z"/>
<path fill="#000000" opacity="1.000000" stroke="none" 
	d="
M574.174805,272.072052 
	C558.673218,302.345703 535.536621,325.268066 508.790894,344.964325 
	C488.504700,359.903625 470.575745,377.129608 457.076263,398.625397 
	C436.550293,431.309723 435.043274,465.241333 450.806183,500.077057 
	C463.829376,528.857910 483.668854,552.440918 507.742157,572.588623 
	C515.505066,579.085632 518.065308,587.400085 515.850098,596.769775 
	C513.577759,606.380859 506.861145,612.026611 496.993713,613.751404 
	C490.484863,614.889221 484.499817,613.213562 479.649872,609.195251 
	C442.581848,578.483093 413.408569,541.962219 399.950500,494.980682 
	C385.475739,444.449829 397.455597,398.973022 428.976318,357.933563 
	C444.322021,337.953796 462.739532,321.166626 483.008972,306.309753 
	C498.553894,294.915771 512.522766,281.882263 523.747131,266.099823 
	C545.519714,235.485825 549.131042,202.380035 536.507263,167.438522 
	C524.542847,134.321991 504.012085,106.867462 478.811981,82.663582 
	C467.083252,71.398575 468.196899,54.221359 481.139160,45.683128 
	C490.578613,39.455742 501.766357,40.871029 511.200378,49.770924 
	C532.441589,69.809601 550.379456,92.478935 564.599487,118.001999 
	C574.697510,136.126648 582.431213,155.174820 586.565186,175.622803 
	C593.327209,209.070496 589.470703,241.104645 574.174805,272.072052 
z"/>
<path fill="#000000" opacity="1.000000" stroke="none" 
	d="
M668.582886,295.583038 
	C682.142334,283.575500 694.098633,270.672729 702.806396,255.034119 
	C718.578552,226.708115 719.369629,197.303604 708.494141,167.354584 
	C696.477295,134.262177 675.987488,106.805359 650.761902,82.636932 
	C639.070862,71.435799 640.225403,54.152359 653.184143,45.651405 
	C662.351990,39.637257 673.535339,40.834808 682.499817,49.115494 
	C695.013794,60.674881 706.252319,73.410744 716.458252,87.044563 
	C735.201050,112.082390 750.058777,139.135025 757.277161,169.776276 
	C769.669067,222.378265 756.170532,268.391876 721.072571,308.776398 
	C706.297241,325.777252 688.186707,338.826508 670.736023,352.734741 
	C653.167480,366.736908 637.895325,382.990448 626.610352,402.609680 
	C608.295898,434.450073 607.795776,467.113312 622.862122,500.210022 
	C635.947021,528.954041 655.725098,552.553589 679.823853,572.668823 
	C687.245667,578.863770 689.836609,586.776306 688.087769,595.890015 
	C686.507874,604.123779 681.390137,609.849854 673.302612,612.703979 
	C665.406860,615.490479 657.829834,614.346069 651.623596,609.162292 
	C612.261047,576.285156 581.652771,537.299988 569.775269,486.263123 
	C559.724670,443.076172 569.514221,403.486084 594.202820,367.245331 
	C609.457642,344.852570 628.695435,326.282501 650.175415,309.927002 
	C656.270325,305.286163 662.268250,300.517883 668.582886,295.583038 
z"/>
</svg>