<svg version="1.1" id="Layer_1" xmlns="http://www.w3.org/2000/svg" xmlns:xlink="http://www.w3.org/1999/xlink" x="0px" y="0px"
	 width="100%" viewBox="0 0 1000 1000" enable-background="new 0 0 1000 1000" xml:space="preserve">
<path fill="#1E1E1E" opacity="1.000000" stroke="none" 
	d="
M561.000000,1001.000000 
	C374.000000,1001.000000 187.500000,1001.000000 1.000000,1001.000000 
	C1.000000,667.666687 1.000000,334.333344 1.000000,1.000000 
	C334.333344,1.000000 667.666687,1.000000 1001.000000,1.000000 
	C1001.000000,334.333344 1001.000000,667.666687 1001.000000,1001.000000 
	C854.500000,1001.000000 708.000000,1001.000000 561.000000,1001.000000 
M140.662430,734.867493 
	C137.439270,732.232361 134.143265,729.680969 131.004227,726.949219 
	C99.647301,699.661072 82.857491,665.578003 82.961929,623.654297 
	C83.033310,595.004517 90.456917,568.096985 102.602592,542.389221 
	C113.492455,519.339539 127.034416,498.076996 146.425949,481.132416 
	C150.222702,477.814819 154.729218,474.722046 159.449234,473.160919 
	C172.516464,468.838928 179.761337,457.498169 176.349670,445.199005 
	C172.878998,432.687164 161.036896,426.226440 147.749420,429.566772 
	C134.075806,433.004181 122.862602,440.778076 113.143478,450.480896 
	C67.873672,495.674774 42.791813,550.368896 38.235031,614.115295 
	C36.113144,643.799072 41.620430,672.438721 54.315090,699.520325 
	C70.808990,734.706848 97.066689,761.061646 129.388229,781.737671 
	C173.188293,809.756653 221.924118,824.769165 272.374573,834.907166 
	C320.486084,844.575012 369.210785,849.187073 418.199036,850.597778 
	C500.918274,852.979980 583.421509,850.465088 665.430115,838.157043 
	C707.601318,831.827881 749.135498,822.851257 789.471985,808.888306 
	C829.475403,795.040710 867.109985,776.753601 899.736267,749.166992 
	C957.046387,700.709290 975.908569,633.764343 950.882324,565.003723 
	C937.907532,529.355042 915.766663,499.850891 887.394958,474.968323 
	C855.906494,447.352142 819.916809,428.489807 778.655518,420.224609 
	C764.879700,417.465149 753.448608,424.662476 750.667847,437.641479 
	C748.005737,450.066864 755.869019,461.127075 769.391052,464.231903 
	C831.127686,478.407440 876.874329,513.570862 904.294739,570.598206 
	C924.323853,612.253357 921.620117,653.205383 893.216248,691.001770 
	C878.682983,710.341003 859.911560,724.884583 839.243652,737.098267 
	C799.435425,760.622864 755.909363,774.097046 711.133972,784.031677 
	C663.902954,794.510986 616.008728,800.192383 567.766846,803.221985 
	C503.832520,807.237122 439.902069,807.875671 375.970490,803.180237 
	C330.071716,799.809143 284.643646,793.493347 240.257309,780.969116 
	C204.858765,770.980835 171.054321,757.432251 140.662430,734.867493 
M417.032227,213.418839 
	C417.910278,194.418060 415.241821,175.886963 409.337860,157.846466 
	C395.441864,115.384911 370.179688,80.345047 338.248322,49.743584 
	C328.176361,40.091114 314.018646,40.167076 305.267670,49.597446 
	C296.194000,59.375523 297.366425,72.890816 307.801941,82.853134 
	C330.547424,104.567215 349.263062,129.246719 361.612946,158.341339 
	C380.320312,202.413269 374.921661,243.048538 342.348572,278.692352 
	C332.091248,289.916656 320.087280,299.707428 308.083588,309.137054 
	C287.402344,325.383423 268.225128,342.991028 252.954300,364.516388 
	C221.918900,408.263000 213.823425,455.647888 232.213043,506.420471 
	C247.167053,547.707581 274.026398,580.659546 307.554291,608.373352 
	C317.482208,616.579651 331.574188,614.720398 339.196075,605.080017 
	C347.115692,595.063110 345.439880,581.563843 335.294800,573.051880 
	C311.405701,553.008362 291.597809,529.672302 278.557526,501.130615 
	C261.922882,464.721893 264.031128,429.448120 286.087189,395.763245 
	C299.674286,375.012604 317.439026,358.309082 337.318024,343.708038 
	C354.711975,330.932251 370.624268,316.571167 383.907013,299.472656 
	C403.378448,274.407532 415.303101,246.380676 417.032227,213.418839 
M570.265808,421.839905 
	C564.765015,446.558441 565.379883,471.138458 572.632812,495.387878 
	C586.521973,541.824951 615.189026,578.087036 651.839844,608.584717 
	C661.492554,616.616882 675.562134,614.622314 683.107605,605.191284 
	C691.080322,595.226257 689.496033,581.593811 679.404358,573.136047 
	C655.500793,553.102722 635.702637,529.773071 622.619385,501.243988 
	C609.354553,472.319000 607.299744,442.952454 620.506409,413.363373 
	C631.930420,387.768188 650.516479,367.878357 672.168091,350.827820 
	C689.978699,336.802063 708.098938,323.246674 722.810303,305.766266 
	C756.151428,266.149414 769.115601,221.178345 756.743896,170.400650 
	C744.768799,121.250877 716.361816,81.897041 680.013184,47.813835 
	C673.998291,42.173786 666.331604,41.134884 658.492371,43.808079 
	C641.778503,49.507519 637.937744,69.706978 651.047119,82.137543 
	C674.122314,104.017937 693.047424,128.926056 705.599609,158.312729 
	C716.372803,183.534500 720.148132,209.495285 711.684570,236.182892 
	C703.768250,261.144714 687.486206,280.309235 667.923828,296.946350 
	C652.463379,310.094849 636.046021,322.214355 621.393555,336.195221 
	C596.793213,359.667938 578.663940,387.479370 570.265808,421.839905 
M574.117981,270.626862 
	C587.700623,243.432129 592.404236,214.627899 587.549194,184.770767 
	C578.517639,129.228806 547.995972,85.774704 508.189606,47.959988 
	C500.969513,41.101151 489.928894,40.777756 481.750183,45.957958 
	C468.708160,54.218468 467.626007,71.186073 479.229736,82.267868 
	C502.703766,104.686005 522.050354,130.100449 534.423279,160.340500 
	C548.409607,194.524124 548.470825,228.049118 528.493225,260.228363 
	C516.168762,280.080261 499.138245,295.359833 480.491638,309.088348 
	C459.035919,324.885132 439.992859,343.193634 424.593506,365.041687 
	C393.083954,409.746277 385.777985,457.941345 405.258911,509.329193 
	C419.366364,546.542542 443.557983,576.789734 473.047546,603.040710 
	C475.036652,604.811401 477.055878,606.558838 479.164154,608.183350 
	C489.614990,616.235535 503.506073,614.848999 511.261993,605.025452 
	C519.127563,595.063049 517.389526,581.539185 507.236542,573.007996 
	C483.369476,552.953308 463.583405,529.620361 450.544159,501.077393 
	C435.569611,468.298157 435.432404,435.746338 453.226562,403.857574 
	C466.115387,380.759644 484.309906,362.288147 505.388519,346.747253 
	C533.324219,326.150726 557.860352,302.664093 574.117981,270.626862 
z"/>
<path fill="#FDFDFD" opacity="1.000000" stroke="none" 
	d="
M140.964874,735.055298 
	C171.054321,757.432251 204.858765,770.980835 240.257309,780.969116 
	C284.643646,793.493347 330.071716,799.809143 375.970490,803.180237 
	C439.902069,807.875671 503.832520,807.237122 567.766846,803.221985 
	C616.008728,800.192383 663.902954,794.510986 711.133972,784.031677 
	C755.909363,774.097046 799.435425,760.622864 839.243652,737.098267 
	C859.911560,724.884583 878.682983,710.341003 893.216248,691.001770 
	C921.620117,653.205383 924.323853,612.253357 904.294739,570.598206 
	C876.874329,513.570862 831.127686,478.407440 769.391052,464.231903 
	C755.869019,461.127075 748.005737,450.066864 750.667847,437.641479 
	C753.448608,424.662476 764.879700,417.465149 778.655518,420.224609 
	C819.916809,428.489807 855.906494,447.352142 887.394958,474.968323 
	C915.766663,499.850891 937.907532,529.355042 950.882324,565.003723 
	C975.908569,633.764343 957.046387,700.709290 899.736267,749.166992 
	C867.109985,776.753601 829.475403,795.040710 789.471985,808.888306 
	C749.135498,822.851257 707.601318,831.827881 665.430115,838.157043 
	C583.421509,850.465088 500.918274,852.979980 418.199036,850.597778 
	C369.210785,849.187073 320.486084,844.575012 272.374573,834.907166 
	C221.924118,824.769165 173.188293,809.756653 129.388229,781.737671 
	C97.066689,761.061646 70.808990,734.706848 54.315090,699.520325 
	C41.620430,672.438721 36.113144,643.799072 38.235031,614.115295 
	C42.791813,550.368896 67.873672,495.674774 113.143478,450.480896 
	C122.862602,440.778076 134.075806,433.004181 147.749420,429.566772 
	C161.036896,426.226440 172.878998,432.687164 176.349670,445.199005 
	C179.761337,457.498169 172.516464,468.838928 159.449234,473.160919 
	C154.729218,474.722046 150.222702,477.814819 146.425949,481.132416 
	C127.034416,498.076996 113.492455,519.339539 102.602592,542.389221 
	C90.456917,568.096985 83.033310,595.004517 82.961929,623.654297 
	C82.857491,665.578003 99.647301,699.661072 131.004227,726.949219 
	C134.143265,729.680969 137.439270,732.232361 140.964874,735.055298 
z"/>
<path fill="#FDFDFD" opacity="1.000000" stroke="none" 
	d="
M417.019012,213.904633 
	C415.303101,246.380676 403.378448,274.407532 383.907013,299.472656 
	C370.624268,316.571167 354.711975,330.932251 337.318024,343.708038 
	C317.439026,358.309082 299.674286,375.012604 286.087189,395.763245 
	C264.031128,429.448120 261.922882,464.721893 278.557526,501.130615 
	C291.597809,529.672302 311.405701,553.008362 335.294800,573.051880 
	C345.439880,581.563843 347.115692,595.063110 339.196075,605.080017 
	C331.574188,614.720398 317.482208,616.579651 307.554291,608.373352 
	C274.026398,580.659546 247.167053,547.707581 232.213043,506.420471 
	C213.823425,455.647888 221.918900,408.263000 252.954300,364.516388 
	C268.225128,342.991028 287.402344,325.383423 308.083588,309.137054 
	C320.087280,299.707428 332.091248,289.916656 342.348572,278.692352 
	C374.921661,243.048538 380.320312,202.413269 361.612946,158.341339 
	C349.263062,129.246719 330.547424,104.567215 307.801941,82.853134 
	C297.366425,72.890816 296.194000,59.375523 305.267670,49.597446 
	C314.018646,40.167076 328.176361,40.091114 338.248322,49.743584 
	C370.179688,80.345047 395.441864,115.384911 409.337860,157.846466 
	C415.241821,175.886963 417.910278,194.418060 417.019012,213.904633 
z"/>
<path fill="#FDFDFD" opacity="1.000000" stroke="none" 
	d="
M570.403198,421.446014 
	C578.663940,387.479370 596.793213,359.667938 621.393555,336.195221 
	C636.046021,322.214355 652.463379,310.094849 667.923828,296.946350 
	C687.486206,280.309235 703.768250,261.144714 711.684570,236.182892 
	C720.148132,209.495285 716.372803,183.534500 705.599609,158.312729 
	C693.047424,128.926056 674.122314,104.017937 651.047119,82.137543 
	C637.937744,69.706978 641.778503,49.507519 658.492371,43.808079 
	C666.331604,41.134884 673.998291,42.173786 680.013184,47.813835 
	C716.361816,81.897041 744.768799,121.250877 756.743896,170.400650 
	C769.115601,221.178345 756.151428,266.149414 722.810303,305.766266 
	C708.098938,323.246674 689.978699,336.802063 672.168091,350.827820 
	C650.516479,367.878357 631.930420,387.768188 620.506409,413.363373 
	C607.299744,442.952454 609.354553,472.319000 622.619385,501.243988 
	C635.702637,529.773071 655.500793,553.102722 679.404358,573.136047 
	C689.496033,581.593811 691.080322,595.226257 683.107605,605.191284 
	C675.562134,614.622314 661.492554,616.616882 651.839844,608.584717 
	C615.189026,578.087036 586.521973,541.824951 572.632812,495.387878 
	C565.379883,471.138458 564.765015,446.558441 570.403198,421.446014 
z"/>
<path fill="#FDFDFD" opacity="1.000000" stroke="none" 
	d="
M573.993286,270.978668 
	C557.860352,302.664093 533.324219,326.150726 505.388519,346.747253 
	C484.309906,362.288147 466.115387,380.759644 453.226562,403.857574 
	C435.432404,435.746338 435.569611,468.298157 450.544159,501.077393 
	C463.583405,529.620361 483.369476,552.953308 507.236542,573.007996 
	C517.389526,581.539185 519.127563,595.063049 511.261993,605.025452 
	C503.506073,614.848999 489.614990,616.235535 479.164154,608.183350 
	C477.055878,606.558838 475.036652,604.811401 473.047546,603.040710 
	C443.557983,576.789734 419.366364,546.542542 405.258911,509.329193 
	C385.777985,457.941345 393.083954,409.746277 424.593506,365.041687 
	C439.992859,343.193634 459.035919,324.885132 480.491638,309.088348 
	C499.138245,295.359833 516.168762,280.080261 528.493225,260.228363 
	C548.470825,228.049118 548.409607,194.524124 534.423279,160.340500 
	C522.050354,130.100449 502.703766,104.686005 479.229736,82.267868 
	C467.626007,71.186073 468.708160,54.218468 481.750183,45.957958 
	C489.928894,40.777756 500.969513,41.101151 508.189606,47.959988 
	C547.995972,85.774704 578.517639,129.228806 587.549194,184.770767 
	C592.404236,214.627899 587.700623,243.432129 573.993286,270.978668 
z"/>
</svg>